<svg width="168" height="22" viewBox="0 0 168 22" fill="none" xmlns="http://www.w3.org/2000/svg">
<path d="M14.928 17L14.906 7.782L10.374 15.372H8.79L4.258 7.958V17H0.914V1.6H3.862L9.626 11.17L15.302 1.6H18.25L18.272 17H14.928ZM26.4316 4.988C28.2649 4.988 29.6729 5.428 30.6556 6.308C31.6383 7.17333 32.1296 8.486 32.1296 10.246V17H28.9176V15.526C28.2723 16.626 27.0696 17.176 25.3096 17.176C24.4003 17.176 23.6083 17.022 22.9336 16.714C22.2736 16.406 21.7676 15.9807 21.4156 15.438C21.0636 14.8953 20.8876 14.2793 20.8876 13.59C20.8876 12.49 21.2983 11.6247 22.1196 10.994C22.9556 10.3633 24.2389 10.048 25.9696 10.048H28.6976C28.6976 9.3 28.4703 8.728 28.0156 8.332C27.5609 7.92133 26.8789 7.716 25.9696 7.716C25.3389 7.716 24.7156 7.81867 24.0996 8.024C23.4983 8.21467 22.9849 8.47867 22.5596 8.816L21.3276 6.418C21.9729 5.96333 22.7429 5.61133 23.6376 5.362C24.5469 5.11267 25.4783 4.988 26.4316 4.988ZM26.1676 14.866C26.7543 14.866 27.2749 14.734 27.7296 14.47C28.1843 14.1913 28.5069 13.788 28.6976 13.26V12.05H26.3436C24.9356 12.05 24.2316 12.512 24.2316 13.436C24.2316 13.876 24.4003 14.228 24.7376 14.492C25.0896 14.7413 25.5663 14.866 26.1676 14.866ZM42.0849 4.988C43.1849 4.988 44.1823 5.24467 45.0769 5.758C45.9863 6.25667 46.6976 6.968 47.2109 7.892C47.7243 8.80133 47.9809 9.86467 47.9809 11.082C47.9809 12.2993 47.7243 13.37 47.2109 14.294C46.6976 15.2033 45.9863 15.9147 45.0769 16.428C44.1823 16.9267 43.1849 17.176 42.0849 17.176C40.5743 17.176 39.3863 16.6993 38.5209 15.746V21.268H35.0889V5.164H38.3669V6.528C39.2176 5.50133 40.4569 4.988 42.0849 4.988ZM41.4909 14.36C42.3709 14.36 43.0896 14.0667 43.6469 13.48C44.2189 12.8787 44.5049 12.0793 44.5049 11.082C44.5049 10.0847 44.2189 9.29267 43.6469 8.706C43.0896 8.10467 42.3709 7.804 41.4909 7.804C40.6109 7.804 39.8849 8.10467 39.3129 8.706C38.7556 9.29267 38.4769 10.0847 38.4769 11.082C38.4769 12.0793 38.7556 12.8787 39.3129 13.48C39.8849 14.0667 40.6109 14.36 41.4909 14.36ZM55.6003 12.512H53.8183V17H50.3863V5.164H53.8183V9.762H55.6663L58.8783 5.164H62.5303L58.3943 10.84L62.8163 17H58.7683L55.6003 12.512ZM75.6423 11.126C75.6423 11.17 75.6203 11.478 75.5763 12.05H66.6223C66.7837 12.7833 67.165 13.3627 67.7663 13.788C68.3677 14.2133 69.1157 14.426 70.0103 14.426C70.6263 14.426 71.169 14.338 71.6383 14.162C72.1223 13.9713 72.5697 13.678 72.9803 13.282L74.8063 15.262C73.6917 16.538 72.0637 17.176 69.9223 17.176C68.5877 17.176 67.407 16.9193 66.3803 16.406C65.3537 15.878 64.5617 15.152 64.0043 14.228C63.447 13.304 63.1683 12.2553 63.1683 11.082C63.1683 9.92333 63.4397 8.882 63.9823 7.958C64.5397 7.01933 65.295 6.29333 66.2483 5.78C67.2163 5.252 68.2943 4.988 69.4823 4.988C70.641 4.988 71.6897 5.23733 72.6283 5.736C73.567 6.23467 74.3003 6.95333 74.8283 7.892C75.371 8.816 75.6423 9.894 75.6423 11.126ZM69.5043 7.584C68.727 7.584 68.0743 7.804 67.5463 8.244C67.0183 8.684 66.6957 9.28533 66.5783 10.048H72.4083C72.291 9.3 71.9683 8.706 71.4403 8.266C70.9123 7.81133 70.267 7.584 69.5043 7.584ZM87.8088 7.98H83.8048V17H80.3948V7.98H76.3908V5.164H87.8088V7.98ZM106.05 14.096V20.256H102.772V17H89.9023V1.6H93.4443V14.096H100.308V1.6H103.85V14.096H106.05ZM108.136 5.164H111.546V12.204L117.31 5.164H120.456V17H117.046V9.96L111.304 17H108.136V5.164ZM140.101 11.038C140.101 12.8713 139.485 14.3233 138.253 15.394C137.036 16.45 135.291 17.0587 133.017 17.22V21.268H129.871V17.22C127.598 17.0587 125.845 16.4573 124.613 15.416C123.396 14.36 122.787 12.9007 122.787 11.038C122.787 9.20467 123.389 7.782 124.591 6.77C125.809 5.758 127.569 5.17133 129.871 5.01V0.675999H133.017V5.01C135.291 5.17133 137.036 5.76533 138.253 6.792C139.485 7.81867 140.101 9.234 140.101 11.038ZM126.109 11.038C126.109 12.094 126.41 12.908 127.011 13.48C127.613 14.052 128.566 14.4113 129.871 14.558V7.672C128.566 7.804 127.613 8.14867 127.011 8.706C126.41 9.24867 126.109 10.026 126.109 11.038ZM133.017 14.558C134.323 14.4113 135.276 14.052 135.877 13.48C136.493 12.908 136.801 12.094 136.801 11.038C136.801 10.026 136.493 9.24867 135.877 8.706C135.276 8.14867 134.323 7.804 133.017 7.672V14.558ZM149.399 4.988C150.499 4.988 151.497 5.24467 152.391 5.758C153.301 6.25667 154.012 6.968 154.525 7.892C155.039 8.80133 155.295 9.86467 155.295 11.082C155.295 12.2993 155.039 13.37 154.525 14.294C154.012 15.2033 153.301 15.9147 152.391 16.428C151.497 16.9267 150.499 17.176 149.399 17.176C147.889 17.176 146.701 16.6993 145.835 15.746V21.268H142.403V5.164H145.681V6.528C146.532 5.50133 147.771 4.988 149.399 4.988ZM148.805 14.36C149.685 14.36 150.404 14.0667 150.961 13.48C151.533 12.8787 151.819 12.0793 151.819 11.082C151.819 10.0847 151.533 9.29267 150.961 8.706C150.404 8.10467 149.685 7.804 148.805 7.804C147.925 7.804 147.199 8.10467 146.627 8.706C146.07 9.29267 145.791 10.0847 145.791 11.082C145.791 12.0793 146.07 12.8787 146.627 13.48C147.199 14.0667 147.925 14.36 148.805 14.36ZM162.105 4.988C163.939 4.988 165.347 5.428 166.329 6.308C167.312 7.17333 167.803 8.486 167.803 10.246V17H164.591V15.526C163.946 16.626 162.743 17.176 160.983 17.176C160.074 17.176 159.282 17.022 158.607 16.714C157.947 16.406 157.441 15.9807 157.089 15.438C156.737 14.8953 156.561 14.2793 156.561 13.59C156.561 12.49 156.972 11.6247 157.793 10.994C158.629 10.3633 159.913 10.048 161.643 10.048H164.371C164.371 9.3 164.144 8.728 163.689 8.332C163.235 7.92133 162.553 7.716 161.643 7.716C161.013 7.716 160.389 7.81867 159.773 8.024C159.172 8.21467 158.659 8.47867 158.233 8.816L157.001 6.418C157.647 5.96333 158.417 5.61133 159.311 5.362C160.221 5.11267 161.152 4.988 162.105 4.988ZM161.841 14.866C162.428 14.866 162.949 14.734 163.403 14.47C163.858 14.1913 164.181 13.788 164.371 13.26V12.05H162.017C160.609 12.05 159.905 12.512 159.905 13.436C159.905 13.876 160.074 14.228 160.411 14.492C160.763 14.7413 161.24 14.866 161.841 14.866Z" fill="white"/>
</svg>
